<svg version="1.1" xmlns="http://www.w3.org/2000/svg" viewBox="0 0 2001.78524718523 814.508176394459" width="2001.78524718523" height="814.508176394459">
  <!-- svg-source:excalidraw -->
  
  <defs>
    <style class="style-fonts">
      @font-face {
        font-family: "Virgil";
        src: url("https://excalidraw.com/Virgil.woff2");
      }
      @font-face {
        font-family: "Cascadia";
        src: url("https://excalidraw.com/Cascadia.woff2");
      }
      @font-face {
        font-family: "Assistant";
        src: url("https://excalidraw.com/Assistant-Regular.woff2");
      }
    </style>
    
  </defs>
  <rect x="0" y="0" width="2001.78524718523" height="814.508176394459" fill="#ffffff"></rect><g stroke-linecap="round" transform="translate(266.08189661186697 304.60050127536346) rotate(0 101 55.66667175292969)"><path d="M27.83 0 C64.17 2.56, 102.75 2.06, 174.17 0 M27.83 0 C72.5 1.52, 116.66 0.86, 174.17 0 M174.17 0 C194.68 1.45, 200.24 9.45, 202 27.83 M174.17 0 C191.27 1.5, 201.12 7.06, 202 27.83 M202 27.83 C202.4 39.16, 202.23 54.89, 202 83.5 M202 27.83 C203.22 44.2, 202.25 59.35, 202 83.5 M202 83.5 C203.74 102.56, 192.53 112.34, 174.17 111.33 M202 83.5 C201.33 99.77, 193.35 110.19, 174.17 111.33 M174.17 111.33 C127.04 111.57, 82.07 109.6, 27.83 111.33 M174.17 111.33 C119.56 109.2, 64.98 110.6, 27.83 111.33 M27.83 111.33 C11.16 112.28, 1.09 103.65, 0 83.5 M27.83 111.33 C7.06 109.91, 0.4 102.98, 0 83.5 M0 83.5 C0.65 68.29, 1.78 55.46, 0 27.83 M0 83.5 C-0.62 61.36, 0.73 40.18, 0 27.83 M0 27.83 C-0.63 8.73, 9.82 0.09, 27.83 0 M0 27.83 C-0.31 9.34, 8.58 -0.91, 27.83 0" stroke="#1e1e1e" stroke-width="2" fill="none"></path></g><g transform="translate(290.0019710747576 335.26717302829314) rotate(0 77.07992553710938 25)"><text x="77.07992553710938" y="17.52" font-family="Virgil, Segoe UI Emoji" font-size="20px" fill="#1e1e1e" text-anchor="middle" style="white-space: pre;" direction="ltr" dominant-baseline="alphabetic">get csrf secret</text><text x="77.07992553710938" y="42.519999999999996" font-family="Virgil, Segoe UI Emoji" font-size="20px" fill="#1e1e1e" text-anchor="middle" style="white-space: pre;" direction="ltr" dominant-baseline="alphabetic">from session</text></g><g stroke-linecap="round" transform="translate(529.1374140204498 270.43382189303924) rotate(0 92.08335876464844 85)"><path d="M116.25 21.5 C128.36 34.97, 143.97 46.47, 160.92 64.5 M116.25 21.5 C132.43 36.41, 148.29 53.29, 160.92 64.5 M160.92 64.5 C182.31 85.73, 185.05 87.1, 160.92 107.5 M160.92 64.5 C184.07 87.94, 182.57 84.86, 160.92 107.5 M160.92 107.5 C147.74 118.17, 135.29 132.7, 116.25 148.5 M160.92 107.5 C144.23 123.07, 128.42 138.18, 116.25 148.5 M116.25 148.5 C93.37 168.54, 93.39 168.33, 69.75 148.5 M116.25 148.5 C92.99 170.65, 95.24 172.26, 69.75 148.5 M69.75 148.5 C52.49 135.31, 37.92 121.47, 23.25 107.5 M69.75 148.5 C58.79 139.18, 47.23 129.65, 23.25 107.5 M23.25 107.5 C-1.23 86.48, 1.66 86, 23.25 64.5 M23.25 107.5 C2.01 87.28, -0.25 84.93, 23.25 64.5 M23.25 64.5 C35.09 53.25, 51.71 40.1, 69.75 21.5 M23.25 64.5 C38.68 49.71, 55.23 35.11, 69.75 21.5 M69.75 21.5 C91.27 -0.83, 92.23 0.22, 116.25 21.5 M69.75 21.5 C90.89 -1.14, 93.52 0.83, 116.25 21.5" stroke="#1e1e1e" stroke-width="2" fill="none"></path></g><g transform="translate(589.8391275824615 317.93382189303924) rotate(0 31.3399658203125 37.5)"><text x="31.3399658203125" y="17.52" font-family="Virgil, Segoe UI Emoji" font-size="20px" fill="#1e1e1e" text-anchor="middle" style="white-space: pre;" direction="ltr" dominant-baseline="alphabetic">check </text><text x="31.3399658203125" y="42.519999999999996" font-family="Virgil, Segoe UI Emoji" font-size="20px" fill="#1e1e1e" text-anchor="middle" style="white-space: pre;" direction="ltr" dominant-baseline="alphabetic">csrf</text><text x="31.3399658203125" y="67.52" font-family="Virgil, Segoe UI Emoji" font-size="20px" fill="#1e1e1e" text-anchor="middle" style="white-space: pre;" direction="ltr" dominant-baseline="alphabetic">secret</text></g><g stroke-linecap="round" transform="translate(746.4708109320709 108.5171882870822) rotate(0 101 55.66667175292969)"><path d="M27.83 0 C85.55 -1.05, 144.22 0.73, 174.17 0 M27.83 0 C64.31 1.38, 99.1 0.74, 174.17 0 M174.17 0 C194.66 0.76, 201.31 7.82, 202 27.83 M174.17 0 C191.07 0.01, 200.03 10.69, 202 27.83 M202 27.83 C200.29 40.66, 202.41 53.2, 202 83.5 M202 27.83 C202.78 49.25, 201.62 72.06, 202 83.5 M202 83.5 C203.65 101.92, 191.14 110.97, 174.17 111.33 M202 83.5 C202.38 103.35, 193.19 111.8, 174.17 111.33 M174.17 111.33 C132.51 112.98, 92.75 113.95, 27.83 111.33 M174.17 111.33 C119.12 110.76, 63.95 110.32, 27.83 111.33 M27.83 111.33 C10.11 111.68, 1.33 102.18, 0 83.5 M27.83 111.33 C11.44 112.28, 1.5 103.38, 0 83.5 M0 83.5 C1.13 63.5, -0.7 49.23, 0 27.83 M0 83.5 C0.65 63, -0.35 43.39, 0 27.83 M0 27.83 C0.47 11.05, 8.02 0.8, 27.83 0 M0 27.83 C0.86 11.57, 7.53 1.52, 27.83 0" stroke="#1e1e1e" stroke-width="2" fill="none"></path></g><g transform="translate(762.9008799017975 139.1838600400119) rotate(0 84.56993103027344 25)"><text x="84.56993103027344" y="17.52" font-family="Virgil, Segoe UI Emoji" font-size="20px" fill="#1e1e1e" text-anchor="middle" style="white-space: pre;" direction="ltr" dominant-baseline="alphabetic">create new csrf</text><text x="84.56993103027344" y="42.519999999999996" font-family="Virgil, Segoe UI Emoji" font-size="20px" fill="#1e1e1e" text-anchor="middle" style="white-space: pre;" direction="ltr" dominant-baseline="alphabetic">secret and token</text></g><g stroke-linecap="round"><g transform="translate(619.1374903143951 262.9338600400119) rotate(0 61.66664123535156 -49.16667938232422)"><path d="M0.87 -0.03 C21.41 -16.69, 102.83 -82.94, 123.4 -99.45 M-0.14 -1.1 C20.25 -17.7, 101.79 -82.32, 122.48 -98.5" stroke="#1e1e1e" stroke-width="2" fill="none"></path></g><g transform="translate(619.1374903143951 262.9338600400119) rotate(0 61.66664123535156 -49.16667938232422)"><path d="M109.33 -77.24 C113.25 -83.8, 115.51 -88.88, 122.48 -98.5 M109.33 -77.24 C111.9 -81.74, 115.59 -86.79, 122.48 -98.5" stroke="#1e1e1e" stroke-width="2" fill="none"></path></g><g transform="translate(619.1374903143951 262.9338600400119) rotate(0 61.66664123535156 -49.16667938232422)"><path d="M98.74 -90.67 C105.99 -93.15, 111.53 -94.08, 122.48 -98.5 M98.74 -90.67 C103.68 -91.98, 109.86 -93.86, 122.48 -98.5" stroke="#1e1e1e" stroke-width="2" fill="none"></path></g></g><mask></mask><g transform="translate(629.1374140204498 182.9338600400119) rotate(0 27.069969177246094 12.5)"><text x="0" y="17.52" font-family="Virgil, Segoe UI Emoji" font-size="20px" fill="#1e1e1e" text-anchor="start" style="white-space: pre;" direction="ltr" dominant-baseline="alphabetic">empty</text></g><g stroke-linecap="round"><g transform="translate(622.5587840735316 440.5596428728997) rotate(0 79.06190878783678 52.73060808977209)"><path d="M-0.11 0.91 C26.35 18.18, 132.46 87.09, 158.91 104.41 M-1.62 0.34 C24.73 17.65, 131.76 87.82, 158.37 105.39" stroke="#1e1e1e" stroke-width="2" fill="none"></path></g><g transform="translate(622.5587840735316 440.5596428728997) rotate(0 79.06190878783678 52.73060808977209)"><path d="M134.04 99.63 C143.22 102.76, 147.58 103.98, 158.37 105.39 M134.04 99.63 C139.36 100.45, 146.59 103.24, 158.37 105.39" stroke="#1e1e1e" stroke-width="2" fill="none"></path></g><g transform="translate(622.5587840735316 440.5596428728997) rotate(0 79.06190878783678 52.73060808977209)"><path d="M143.44 85.34 C149.76 92.95, 151.18 98.65, 158.37 105.39 M143.44 85.34 C146.56 89.72, 151.48 96.03, 158.37 105.39" stroke="#1e1e1e" stroke-width="2" fill="none"></path></g></g><mask></mask><g transform="translate(606.6374140204498 472.10050127536346) rotate(0 27.069969177246094 25)"><text x="0" y="17.52" font-family="Virgil, Segoe UI Emoji" font-size="20px" fill="#1e1e1e" text-anchor="start" style="white-space: pre;" direction="ltr" dominant-baseline="alphabetic">not</text><text x="0" y="42.519999999999996" font-family="Virgil, Segoe UI Emoji" font-size="20px" fill="#1e1e1e" text-anchor="start" style="white-space: pre;" direction="ltr" dominant-baseline="alphabetic">empty</text></g><g stroke-linecap="round"><g transform="translate(473.3041315497467 356.2671806576877) rotate(0 29.16666030883789 -0.4166603088378906)"><path d="M-0.91 -0.35 C8.77 -0.24, 48.36 0.09, 58.15 0.02 M0.82 -1.59 C10.31 -1.74, 47.78 -2.02, 57.11 -1.66" stroke="#1e1e1e" stroke-width="2" fill="none"></path></g><g transform="translate(473.3041315497467 356.2671806576877) rotate(0 29.16666030883789 -0.4166603088378906)"><path d="M33.52 6.61 C40.25 3.94, 49.53 0.85, 57.11 -1.66 M33.52 6.61 C41.27 5.15, 48.17 1.65, 57.11 -1.66" stroke="#1e1e1e" stroke-width="2" fill="none"></path></g><g transform="translate(473.3041315497467 356.2671806576877) rotate(0 29.16666030883789 -0.4166603088378906)"><path d="M33.72 -10.49 C40.29 -7.89, 49.51 -5.71, 57.11 -1.66 M33.72 -10.49 C41.5 -6.74, 48.34 -5.05, 57.11 -1.66" stroke="#1e1e1e" stroke-width="2" fill="none"></path></g></g><mask></mask><g stroke-linecap="round" transform="translate(790.1612635077547 466.0528822277444) rotate(0 86.66667393275668 87.14285714285711)"><path d="M108.75 22 C118.27 29.19, 127.14 39.16, 151.58 66 M108.75 22 C118.58 31.01, 126.36 39.62, 151.58 66 M151.58 66 C172.69 87.42, 174.28 87.32, 151.58 110 M151.58 66 C172.26 87.64, 171.79 88.42, 151.58 110 M151.58 110 C142.97 120.99, 131.69 129.48, 108.75 152.29 M151.58 110 C140.23 121.62, 127.97 133.57, 108.75 152.29 M108.75 152.29 C88.54 173.7, 86.88 174.19, 65.25 152.29 M108.75 152.29 C85.76 176.45, 86.67 173.83, 65.25 152.29 M65.25 152.29 C51.34 136.57, 33.59 121.63, 21.75 110 M65.25 152.29 C50.65 139.04, 36.38 125.51, 21.75 110 M21.75 110 C0.85 88.29, 0.17 88.96, 21.75 66 M21.75 110 C-1.27 87.73, 0.95 88.9, 21.75 66 M21.75 66 C32.32 52.12, 44.57 40.23, 65.25 22 M21.75 66 C39.01 47.4, 55.14 30.79, 65.25 22 M65.25 22 C87.75 -1.23, 88.63 0.91, 108.75 22 M65.25 22 C87.03 -1.6, 88.31 1.3, 108.75 22" stroke="#1e1e1e" stroke-width="2" fill="none"></path></g><g transform="translate(843.3746358745236 528.1243107991729) rotate(0 33.619964599609375 25)"><text x="33.619964599609375" y="17.52" font-family="Virgil, Segoe UI Emoji" font-size="20px" fill="#1e1e1e" text-anchor="middle" style="white-space: pre;" direction="ltr" dominant-baseline="alphabetic">check </text><text x="33.619964599609375" y="42.519999999999996" font-family="Virgil, Segoe UI Emoji" font-size="20px" fill="#1e1e1e" text-anchor="middle" style="white-space: pre;" direction="ltr" dominant-baseline="alphabetic">method</text></g><g stroke-linecap="round"><g transform="translate(879.6851020959243 234.62431079917295) rotate(0 -0.4761832101004302 106.6666739327567)"><path d="M-0.71 1.19 C-0.81 36.53, -1.36 177.24, -1.4 212.51 M1.11 0.76 C0.89 36.19, -2.11 178.09, -2.58 213.62" stroke="#1e1e1e" stroke-width="2" fill="none"></path></g><g transform="translate(879.6851020959243 234.62431079917295) rotate(0 -0.4761832101004302 106.6666739327567)"><path d="M-10.72 189.98 C-6.75 194.79, -8.2 201.07, -2.58 213.62 M-10.72 189.98 C-8.11 196.16, -7.22 201.41, -2.58 213.62" stroke="#1e1e1e" stroke-width="2" fill="none"></path></g><g transform="translate(879.6851020959243 234.62431079917295) rotate(0 -0.4761832101004302 106.6666739327567)"><path d="M6.38 190.28 C6.36 194.92, 0.92 201.13, -2.58 213.62 M6.38 190.28 C4.56 196.22, 1.03 201.4, -2.58 213.62" stroke="#1e1e1e" stroke-width="2" fill="none"></path></g></g><mask></mask><g stroke-linecap="round"><g transform="translate(961.8930014708258 546.0245988767235) rotate(0 46.12729651823656 -0.07999006193190894)"><path d="M0.57 1.07 C16.02 1.01, 76.33 -1.18, 91.49 -1.26 M-0.58 0.58 C15.35 0.71, 78.02 0.02, 93.8 -0.3" stroke="#1e1e1e" stroke-width="2" fill="none"></path></g><g transform="translate(961.8930014708258 546.0245988767235) rotate(0 46.12729651823656 -0.07999006193190894)"><path d="M70.43 8.59 C76.96 5.42, 78.02 3.74, 93.8 -0.3 M70.43 8.59 C78.57 4.74, 87.86 2.61, 93.8 -0.3" stroke="#1e1e1e" stroke-width="2" fill="none"></path></g><g transform="translate(961.8930014708258 546.0245988767235) rotate(0 46.12729651823656 -0.07999006193190894)"><path d="M70.18 -8.51 C76.62 -8.26, 77.74 -6.52, 93.8 -0.3 M70.18 -8.51 C78.4 -6.18, 87.79 -2.13, 93.8 -0.3" stroke="#1e1e1e" stroke-width="2" fill="none"></path></g></g><mask></mask><g stroke-linecap="round" transform="translate(778.9575283698114 715.104925768579) rotate(0 100.47620500837053 44.28571428571428)"><path d="M22.14 0 C70.93 -0.24, 119.49 -0.2, 178.81 0 M22.14 0 C77.5 -0.17, 133.71 -0.22, 178.81 0 M178.81 0 C194.87 -0.77, 199.7 7.54, 200.95 22.14 M178.81 0 C195.44 1.02, 199.26 6.08, 200.95 22.14 M200.95 22.14 C203.13 33.01, 199.79 41.39, 200.95 66.43 M200.95 22.14 C200.29 37.33, 201.76 50.9, 200.95 66.43 M200.95 66.43 C202.24 80.52, 192.93 90.04, 178.81 88.57 M200.95 66.43 C198.73 83.26, 193.91 88.67, 178.81 88.57 M178.81 88.57 C125.53 88.24, 68.69 86.23, 22.14 88.57 M178.81 88.57 C145.5 87.66, 110.98 87.21, 22.14 88.57 M22.14 88.57 C7.16 86.92, 1.21 82.77, 0 66.43 M22.14 88.57 C7.87 88.18, 1.34 78.93, 0 66.43 M0 66.43 C0.28 54.82, 0.91 42.21, 0 22.14 M0 66.43 C1.02 52.06, -0.03 39.09, 0 22.14 M0 22.14 C1.57 7.99, 5.97 -0.6, 22.14 0 M0 22.14 C1.51 8.63, 8.53 0.2, 22.14 0" stroke="#1e1e1e" stroke-width="2" fill="none"></path></g><g transform="translate(858.0237526042561 746.8906400542933) rotate(0 21.40998077392578 12.5)"><text x="21.40998077392578" y="17.52" font-family="Virgil, Segoe UI Emoji" font-size="20px" fill="#1e1e1e" text-anchor="middle" style="white-space: pre;" direction="ltr" dominant-baseline="alphabetic">next</text></g><g stroke-linecap="round"><g transform="translate(877.591707121544 642.6680664069245) rotate(0 -1.265248361603426 31.45653218501252)"><path d="M-1.13 -0.84 C-1.55 9.71, -3.13 52.57, -3.3 63.33 M0.47 1.33 C0.51 11.52, -0.46 51.35, -1 61.43" stroke="#1e1e1e" stroke-width="2" fill="none"></path></g><g transform="translate(877.591707121544 642.6680664069245) rotate(0 -1.265248361603426 31.45653218501252)"><path d="M-8.69 37.65 C-8.3 41.99, -4.39 49.4, -1 61.43 M-8.69 37.65 C-6.33 45.85, -2.41 55.53, -1 61.43" stroke="#1e1e1e" stroke-width="2" fill="none"></path></g><g transform="translate(877.591707121544 642.6680664069245) rotate(0 -1.265248361603426 31.45653218501252)"><path d="M8.4 38.27 C4.8 42.3, 4.71 49.57, -1 61.43 M8.4 38.27 C4.46 46.08, 2.08 55.53, -1 61.43" stroke="#1e1e1e" stroke-width="2" fill="none"></path></g></g><mask></mask><g transform="translate(778.6850875637442 661.862391505088) rotate(0 32.869964599609375 12.5)"><text x="0" y="17.52" font-family="Virgil, Segoe UI Emoji" font-size="20px" fill="#1e1e1e" text-anchor="start" style="white-space: pre;" direction="ltr" dominant-baseline="alphabetic">ignored</text></g><g transform="translate(944.3994168745701 482.814801521829) rotate(0 53.729949951171875 12.5)"><text x="0" y="17.52" font-family="Virgil, Segoe UI Emoji" font-size="20px" fill="#1e1e1e" text-anchor="start" style="white-space: pre;" direction="ltr" dominant-baseline="alphabetic">not ignored</text></g><g transform="translate(10 318.6454550739769) rotate(0 115.29991149902344 37.5)"><text x="0" y="17.52" font-family="Virgil, Segoe UI Emoji" font-size="20px" fill="#1e1e1e" text-anchor="start" style="white-space: pre;" direction="ltr" dominant-baseline="alphabetic">You can check source</text><text x="0" y="42.519999999999996" font-family="Virgil, Segoe UI Emoji" font-size="20px" fill="#1e1e1e" text-anchor="start" style="white-space: pre;" direction="ltr" dominant-baseline="alphabetic">code, it has a detailed</text><text x="0" y="67.52" font-family="Virgil, Segoe UI Emoji" font-size="20px" fill="#1e1e1e" text-anchor="start" style="white-space: pre;" direction="ltr" dominant-baseline="alphabetic">comments</text></g><g transform="translate(1532.5184293666155 10) rotate(0 159.26986694335938 62.5)"><text x="0" y="17.52" font-family="Virgil, Segoe UI Emoji" font-size="20px" fill="#1e1e1e" text-anchor="start" style="white-space: pre;" direction="ltr" dominant-baseline="alphabetic">note: What if the first request</text><text x="0" y="42.519999999999996" font-family="Virgil, Segoe UI Emoji" font-size="20px" fill="#1e1e1e" text-anchor="start" style="white-space: pre;" direction="ltr" dominant-baseline="alphabetic">is not ignored eg: POST. What</text><text x="0" y="67.52" font-family="Virgil, Segoe UI Emoji" font-size="20px" fill="#1e1e1e" text-anchor="start" style="white-space: pre;" direction="ltr" dominant-baseline="alphabetic">should I do ?</text><text x="0" y="92.52" font-family="Virgil, Segoe UI Emoji" font-size="20px" fill="#1e1e1e" text-anchor="start" style="white-space: pre;" direction="ltr" dominant-baseline="alphabetic">You have to performce at least</text><text x="0" y="117.52" font-family="Virgil, Segoe UI Emoji" font-size="20px" fill="#1e1e1e" text-anchor="start" style="white-space: pre;" direction="ltr" dominant-baseline="alphabetic">one request before.</text></g><g stroke-linecap="round" transform="translate(1391.1151403349609 498.53924817954174) rotate(0 127.77781168619788 45)"><path d="M22.5 0 C84.04 -1.48, 141.95 -1.81, 233.06 0 M22.5 0 C78.3 2.12, 135.14 0.98, 233.06 0 M233.06 0 C248.38 0.85, 254.61 9.37, 255.56 22.5 M233.06 0 C249.6 -1.53, 256.7 6.41, 255.56 22.5 M255.56 22.5 C257.12 33.23, 257 44.96, 255.56 67.5 M255.56 22.5 C255.36 35.01, 255.52 48.75, 255.56 67.5 M255.56 67.5 C256.27 83.01, 247.74 91.85, 233.06 90 M255.56 67.5 C254.09 80.3, 246.24 88.44, 233.06 90 M233.06 90 C166.59 93.01, 97.87 90.36, 22.5 90 M233.06 90 C171.66 90.42, 110.67 91.02, 22.5 90 M22.5 90 C7.36 88.43, 1.65 81.79, 0 67.5 M22.5 90 C7.23 91.4, 1.15 84.65, 0 67.5 M0 67.5 C0.15 56.67, -1.46 45.38, 0 22.5 M0 67.5 C0.86 52.97, 0.35 40.41, 0 22.5 M0 22.5 C-1.71 5.9, 8.07 -0.15, 22.5 0 M0 22.5 C0.39 8, 9.74 0.8, 22.5 0" stroke="#1e1e1e" stroke-width="2" fill="none"></path></g><g transform="translate(1440.4730148873698 531.0392481795418) rotate(0 78.41993713378906 12.5)"><text x="78.41993713378906" y="17.52" font-family="Virgil, Segoe UI Emoji" font-size="20px" fill="#1e1e1e" text-anchor="middle" style="white-space: pre;" direction="ltr" dominant-baseline="alphabetic">create new csrf</text></g><g transform="translate(421.97894422994597 663.2117843506053) rotate(0 162.7798614501953 25)"><text x="0" y="17.52" font-family="Virgil, Segoe UI Emoji" font-size="20px" fill="#1e1e1e" text-anchor="start" style="white-space: pre;" direction="ltr" dominant-baseline="alphabetic">If the method is ignored we keep</text><text x="0" y="42.519999999999996" font-family="Virgil, Segoe UI Emoji" font-size="20px" fill="#1e1e1e" text-anchor="start" style="white-space: pre;" direction="ltr" dominant-baseline="alphabetic">csrf secret and token as it is.</text></g><g transform="translate(971.224262575965 113.45084833033803) rotate(0 145.4998779296875 25)"><text x="0" y="17.52" font-family="Virgil, Segoe UI Emoji" font-size="20px" fill="#1e1e1e" text-anchor="start" style="white-space: pre;" direction="ltr" dominant-baseline="alphabetic">on create: we store secret</text><text x="0" y="42.519999999999996" font-family="Virgil, Segoe UI Emoji" font-size="20px" fill="#1e1e1e" text-anchor="start" style="white-space: pre;" direction="ltr" dominant-baseline="alphabetic">is session and token in cookie</text></g><g stroke-linecap="round" transform="translate(1073.4559047538419 460.8297957306759) rotate(0 91.79984195564475 85.52159001111164)"><path d="M115 21.5 C128.48 36.4, 143.41 47.92, 160.6 64.5 M115 21.5 C132.83 37.73, 149.46 54.64, 160.6 64.5 M160.6 64.5 C183.6 84.38, 183.28 87.71, 160.6 107.5 M160.6 64.5 C184.22 85.53, 182.37 86.35, 160.6 107.5 M160.6 107.5 C151.06 118.19, 140.68 128.23, 115 149.54 M160.6 107.5 C150.39 117.6, 140 126.91, 115 149.54 M115 149.54 C90.04 171.69, 93.89 171.6, 69 149.54 M115 149.54 C90.25 168.84, 91.05 169.24, 69 149.54 M69 149.54 C59.88 141.66, 48.84 134.65, 23 107.5 M69 149.54 C50.57 133.71, 32.27 115.68, 23 107.5 M23 107.5 C0.21 87.2, 1.45 85.93, 23 64.5 M23 107.5 C0.19 85.4, 1.28 87.83, 23 64.5 M23 64.5 C32.84 54.87, 43.28 43.13, 69 21.5 M23 64.5 C39.53 48.16, 56.19 34.09, 69 21.5 M69 21.5 C92.48 -1.69, 91.9 -1.03, 115 21.5 M69 21.5 C92.94 -0.37, 91.74 -1.93, 115 21.5" stroke="#1e1e1e" stroke-width="2" fill="none"></path></g><g transform="translate(1125.1558593010002 521.5905907362317) rotate(0 40.19996643066406 25)"><text x="40.19996643066406" y="17.52" font-family="Virgil, Segoe UI Emoji" font-size="20px" fill="#1e1e1e" text-anchor="middle" style="white-space: pre;" direction="ltr" dominant-baseline="alphabetic">validate</text><text x="40.19996643066406" y="42.519999999999996" font-family="Virgil, Segoe UI Emoji" font-size="20px" fill="#1e1e1e" text-anchor="middle" style="white-space: pre;" direction="ltr" dominant-baseline="alphabetic">csrf</text></g><g stroke-linecap="round"><g transform="translate(1259.0963156512255 545.6094740056828) rotate(0 58.44089777367742 0.17667189266160221)"><path d="M1.09 -0.98 C20.74 -1.23, 98.15 -0.5, 117.38 -0.29 M0.2 1.12 C19.79 1.52, 97.48 0.83, 116.69 0.92" stroke="#1e1e1e" stroke-width="2" fill="none"></path></g><g transform="translate(1259.0963156512255 545.6094740056828) rotate(0 58.44089777367742 0.17667189266160221)"><path d="M93.22 9.53 C97.42 7.97, 103.92 4.22, 116.69 0.92 M93.22 9.53 C100.09 7.66, 106.7 4.12, 116.69 0.92" stroke="#1e1e1e" stroke-width="2" fill="none"></path></g><g transform="translate(1259.0963156512255 545.6094740056828) rotate(0 58.44089777367742 0.17667189266160221)"><path d="M93.17 -7.57 C97.56 -4.81, 104.07 -4.25, 116.69 0.92 M93.17 -7.57 C100.15 -4.35, 106.78 -2.79, 116.69 0.92" stroke="#1e1e1e" stroke-width="2" fill="none"></path></g></g><mask></mask><g stroke-linecap="round" transform="translate(1790.832837168489 496.86894315615064) rotate(0 100.47620500837047 44.28571428571428)"><path d="M22.14 0 C81.34 -0.05, 144.46 0.2, 178.81 0 M22.14 0 C64.56 0.26, 108.05 0.05, 178.81 0 M178.81 0 C193.82 -0.55, 201 8.8, 200.95 22.14 M178.81 0 C191.83 -1.25, 200.91 7.54, 200.95 22.14 M200.95 22.14 C199.69 32.09, 201.28 42.09, 200.95 66.43 M200.95 22.14 C200.73 38.6, 201 53.09, 200.95 66.43 M200.95 66.43 C201.1 80.56, 194.24 89.36, 178.81 88.57 M200.95 66.43 C201.65 79.74, 192.43 90.68, 178.81 88.57 M178.81 88.57 C139.02 90.41, 95.17 89.57, 22.14 88.57 M178.81 88.57 C117.17 88.03, 56.75 87.65, 22.14 88.57 M22.14 88.57 C9.36 87.02, 0.37 81.38, 0 66.43 M22.14 88.57 C5.45 88.32, 1.36 81.88, 0 66.43 M0 66.43 C-1.36 50.47, 1.91 31.6, 0 22.14 M0 66.43 C0.57 50.72, 0.8 33.56, 0 22.14 M0 22.14 C-1.36 6.11, 8.03 -0.41, 22.14 0 M0 22.14 C1.9 5.13, 8.4 -1.58, 22.14 0" stroke="#1e1e1e" stroke-width="2" fill="none"></path></g><g transform="translate(1869.8990614029337 528.6546574418649) rotate(0 21.40998077392578 12.5)"><text x="21.40998077392578" y="17.52" font-family="Virgil, Segoe UI Emoji" font-size="20px" fill="#1e1e1e" text-anchor="middle" style="white-space: pre;" direction="ltr" dominant-baseline="alphabetic">next</text></g><g stroke-linecap="round"><g transform="translate(1661.8094372877474 544.0323691051042) rotate(0 59.46126126672448 -0.47045872065541516)"><path d="M-0.67 -0.34 C19.14 -0.69, 99.91 -1.64, 119.94 -1.71 M1.18 -1.56 C20.82 -1.82, 99.89 -0.95, 119.53 -0.57" stroke="#1e1e1e" stroke-width="2" fill="none"></path></g><g transform="translate(1661.8094372877474 544.0323691051042) rotate(0 59.46126126672448 -0.47045872065541516)"><path d="M95.92 7.65 C104.55 6.26, 113.07 2.3, 119.53 -0.57 M95.92 7.65 C102.83 4.26, 110.88 2.01, 119.53 -0.57" stroke="#1e1e1e" stroke-width="2" fill="none"></path></g><g transform="translate(1661.8094372877474 544.0323691051042) rotate(0 59.46126126672448 -0.47045872065541516)"><path d="M96.16 -9.45 C104.76 -4.15, 113.18 -1.43, 119.53 -0.57 M96.16 -9.45 C102.91 -7.41, 110.88 -4.24, 119.53 -0.57" stroke="#1e1e1e" stroke-width="2" fill="none"></path></g></g><mask></mask><g transform="translate(1288.3509893318287 496.2979164862658) rotate(0 22.40998077392578 12.5)"><text x="0" y="17.52" font-family="Virgil, Segoe UI Emoji" font-size="20px" fill="#1e1e1e" text-anchor="start" style="white-space: pre;" direction="ltr" dominant-baseline="alphabetic">valid</text></g><g stroke-linecap="round" transform="translate(1060.6068216122233 715.9367478230304) rotate(0 100.47620500837047 44.28571428571428)"><path d="M22.14 0 C72.24 0.82, 120.95 1.9, 178.81 0 M22.14 0 C69.61 0.68, 115.48 0.91, 178.81 0 M178.81 0 C192.07 -1.28, 199.15 5.97, 200.95 22.14 M178.81 0 C194.06 0, 199.04 6.72, 200.95 22.14 M200.95 22.14 C198.9 34.06, 200.72 44.73, 200.95 66.43 M200.95 22.14 C200.67 32.09, 201.62 40.01, 200.95 66.43 M200.95 66.43 C201.96 79.69, 191.98 88.76, 178.81 88.57 M200.95 66.43 C201.91 79.53, 191.81 89.71, 178.81 88.57 M178.81 88.57 C147.88 88.44, 112.36 87.37, 22.14 88.57 M178.81 88.57 C138.83 90.15, 99.86 88.93, 22.14 88.57 M22.14 88.57 C7.46 88.3, -1.28 81.36, 0 66.43 M22.14 88.57 C7.44 86.91, 1.9 82.13, 0 66.43 M0 66.43 C1.01 52.64, 1.4 36.99, 0 22.14 M0 66.43 C1.05 54.01, 0.43 41.82, 0 22.14 M0 22.14 C1.11 7.61, 5.46 -0.77, 22.14 0 M0 22.14 C0.83 6.76, 7.8 1.15, 22.14 0" stroke="#1e1e1e" stroke-width="2" fill="none"></path></g><g transform="translate(1081.2830922333867 735.2224621087448) rotate(0 79.79993438720703 25)"><text x="79.79993438720703" y="17.52" font-family="Virgil, Segoe UI Emoji" font-size="20px" fill="#1e1e1e" text-anchor="middle" style="white-space: pre;" direction="ltr" dominant-baseline="alphabetic">res status 403</text><text x="79.79993438720703" y="42.519999999999996" font-family="Virgil, Segoe UI Emoji" font-size="20px" fill="#1e1e1e" text-anchor="middle" style="white-space: pre;" direction="ltr" dominant-baseline="alphabetic">forbidden</text></g><g stroke-linecap="round"><g transform="translate(1167.3421067539334 649.6453797530817) rotate(0 -0.5215900111115843 27.644270588915788)"><path d="M-0.03 -0.11 C-0.3 9.23, -1.61 46.39, -1.83 55.66 M-1.5 -1.22 C-1.37 7.79, 0.6 44.03, 0.46 53.73" stroke="#1e1e1e" stroke-width="2" fill="none"></path></g><g transform="translate(1167.3421067539334 649.6453797530817) rotate(0 -0.5215900111115843 27.644270588915788)"><path d="M-8.64 30.45 C-6.33 35.7, -2.96 43.05, 0.46 53.73 M-8.64 30.45 C-5.88 37.45, -3.47 44.95, 0.46 53.73" stroke="#1e1e1e" stroke-width="2" fill="none"></path></g><g transform="translate(1167.3421067539334 649.6453797530817) rotate(0 -0.5215900111115843 27.644270588915788)"><path d="M8.46 30.04 C5.94 35.41, 4.48 42.87, 0.46 53.73 M8.46 30.04 C5.76 37.16, 2.71 44.79, 0.46 53.73" stroke="#1e1e1e" stroke-width="2" fill="none"></path></g></g><mask></mask><g transform="translate(1189.2488872206213 650.6885597753048) rotate(0 43.26996612548828 12.5)"><text x="0" y="17.52" font-family="Virgil, Segoe UI Emoji" font-size="20px" fill="#1e1e1e" text-anchor="start" style="white-space: pre;" direction="ltr" dominant-baseline="alphabetic">not valid</text></g><g transform="translate(1532.4551145320659 187.51662990818778) rotate(0 192.32986450195312 62.5)"><text x="0" y="17.52" font-family="Virgil, Segoe UI Emoji" font-size="20px" fill="#1e1e1e" text-anchor="start" style="white-space: pre;" direction="ltr" dominant-baseline="alphabetic">note: What if the session expired ?</text><text x="0" y="42.519999999999996" font-family="Virgil, Segoe UI Emoji" font-size="20px" fill="#1e1e1e" text-anchor="start" style="white-space: pre;" direction="ltr" dominant-baseline="alphabetic">User has to submit before expiration.</text><text x="0" y="67.52" font-family="Virgil, Segoe UI Emoji" font-size="20px" fill="#1e1e1e" text-anchor="start" style="white-space: pre;" direction="ltr" dominant-baseline="alphabetic">You can change the exparation time of</text><text x="0" y="92.52" font-family="Virgil, Segoe UI Emoji" font-size="20px" fill="#1e1e1e" text-anchor="start" style="white-space: pre;" direction="ltr" dominant-baseline="alphabetic">session and cookie as you want.</text><text x="0" y="117.52" font-family="Virgil, Segoe UI Emoji" font-size="20px" fill="#1e1e1e" text-anchor="start" style="white-space: pre;" direction="ltr" dominant-baseline="alphabetic">My suggestion is min: 15min, max: 1h.</text></g></svg>