<svg version="1.1" xmlns="http://www.w3.org/2000/svg" viewBox="0 0 1421.4524675399543 716.2023460751485" width="1421.4524675399543" height="716.2023460751485">
  <!-- svg-source:excalidraw -->
  
  <defs>
    <style class="style-fonts">
      @font-face {
        font-family: "Virgil";
        src: url("https://excalidraw.com/Virgil.woff2");
      }
      @font-face {
        font-family: "Cascadia";
        src: url("https://excalidraw.com/Cascadia.woff2");
      }
      @font-face {
        font-family: "Assistant";
        src: url("https://excalidraw.com/Assistant-Regular.woff2");
      }
    </style>
    
  </defs>
  <rect x="0" y="0" width="1421.4524675399543" height="716.2023460751485" fill="#ffffff"></rect><g stroke-linecap="round" transform="translate(10 206.08331298828125) rotate(0 101 55.66667175292969)"><path d="M27.83 0 C64.17 2.56, 102.75 2.06, 174.17 0 M27.83 0 C72.5 1.52, 116.66 0.86, 174.17 0 M174.17 0 C194.68 1.45, 200.24 9.45, 202 27.83 M174.17 0 C191.27 1.5, 201.12 7.06, 202 27.83 M202 27.83 C202.4 39.16, 202.23 54.89, 202 83.5 M202 27.83 C203.22 44.2, 202.25 59.35, 202 83.5 M202 83.5 C203.74 102.56, 192.53 112.34, 174.17 111.33 M202 83.5 C201.33 99.77, 193.35 110.19, 174.17 111.33 M174.17 111.33 C127.04 111.57, 82.07 109.6, 27.83 111.33 M174.17 111.33 C119.56 109.2, 64.98 110.6, 27.83 111.33 M27.83 111.33 C11.16 112.28, 1.09 103.65, 0 83.5 M27.83 111.33 C7.06 109.91, 0.4 102.98, 0 83.5 M0 83.5 C0.65 68.29, 1.78 55.46, 0 27.83 M0 83.5 C-0.62 61.36, 0.73 40.18, 0 27.83 M0 27.83 C-0.63 8.73, 9.82 0.09, 27.83 0 M0 27.83 C-0.31 9.34, 8.58 -0.91, 27.83 0" stroke="#1e1e1e" stroke-width="2" fill="none"></path></g><g transform="translate(33.920074462890625 236.74998474121094) rotate(0 77.07992553710938 25)"><text x="77.07992553710938" y="17.52" font-family="Virgil, Segoe UI Emoji" font-size="20px" fill="#1e1e1e" text-anchor="middle" style="white-space: pre;" direction="ltr" dominant-baseline="alphabetic">get csrf secret</text><text x="77.07992553710938" y="42.519999999999996" font-family="Virgil, Segoe UI Emoji" font-size="20px" fill="#1e1e1e" text-anchor="middle" style="white-space: pre;" direction="ltr" dominant-baseline="alphabetic">from session</text></g><g stroke-linecap="round" transform="translate(273.0555174085829 171.91663360595703) rotate(0 92.08335876464844 85)"><path d="M116.25 21.5 C128.36 34.97, 143.97 46.47, 160.92 64.5 M116.25 21.5 C132.43 36.41, 148.29 53.29, 160.92 64.5 M160.92 64.5 C182.31 85.73, 185.05 87.1, 160.92 107.5 M160.92 64.5 C184.07 87.94, 182.57 84.86, 160.92 107.5 M160.92 107.5 C147.74 118.17, 135.29 132.7, 116.25 148.5 M160.92 107.5 C144.23 123.07, 128.42 138.18, 116.25 148.5 M116.25 148.5 C93.37 168.54, 93.39 168.33, 69.75 148.5 M116.25 148.5 C92.99 170.65, 95.24 172.26, 69.75 148.5 M69.75 148.5 C52.49 135.31, 37.92 121.47, 23.25 107.5 M69.75 148.5 C58.79 139.18, 47.23 129.65, 23.25 107.5 M23.25 107.5 C-1.23 86.48, 1.66 86, 23.25 64.5 M23.25 107.5 C2.01 87.28, -0.25 84.93, 23.25 64.5 M23.25 64.5 C35.09 53.25, 51.71 40.1, 69.75 21.5 M23.25 64.5 C38.68 49.71, 55.23 35.11, 69.75 21.5 M69.75 21.5 C91.27 -0.83, 92.23 0.22, 116.25 21.5 M69.75 21.5 C90.89 -1.14, 93.52 0.83, 116.25 21.5" stroke="#1e1e1e" stroke-width="2" fill="none"></path></g><g transform="translate(333.7572309705946 219.41663360595703) rotate(0 31.3399658203125 37.5)"><text x="31.3399658203125" y="17.52" font-family="Virgil, Segoe UI Emoji" font-size="20px" fill="#1e1e1e" text-anchor="middle" style="white-space: pre;" direction="ltr" dominant-baseline="alphabetic">check </text><text x="31.3399658203125" y="42.519999999999996" font-family="Virgil, Segoe UI Emoji" font-size="20px" fill="#1e1e1e" text-anchor="middle" style="white-space: pre;" direction="ltr" dominant-baseline="alphabetic">csrf</text><text x="31.3399658203125" y="67.52" font-family="Virgil, Segoe UI Emoji" font-size="20px" fill="#1e1e1e" text-anchor="middle" style="white-space: pre;" direction="ltr" dominant-baseline="alphabetic">secret</text></g><g stroke-linecap="round" transform="translate(490.388914320204 10) rotate(0 101 55.66667175292969)"><path d="M27.83 0 C85.55 -1.05, 144.22 0.73, 174.17 0 M27.83 0 C64.31 1.38, 99.1 0.74, 174.17 0 M174.17 0 C194.66 0.76, 201.31 7.82, 202 27.83 M174.17 0 C191.07 0.01, 200.03 10.69, 202 27.83 M202 27.83 C200.29 40.66, 202.41 53.2, 202 83.5 M202 27.83 C202.78 49.25, 201.62 72.06, 202 83.5 M202 83.5 C203.65 101.92, 191.14 110.97, 174.17 111.33 M202 83.5 C202.38 103.35, 193.19 111.8, 174.17 111.33 M174.17 111.33 C132.51 112.98, 92.75 113.95, 27.83 111.33 M174.17 111.33 C119.12 110.76, 63.95 110.32, 27.83 111.33 M27.83 111.33 C10.11 111.68, 1.33 102.18, 0 83.5 M27.83 111.33 C11.44 112.28, 1.5 103.38, 0 83.5 M0 83.5 C1.13 63.5, -0.7 49.23, 0 27.83 M0 83.5 C0.65 63, -0.35 43.39, 0 27.83 M0 27.83 C0.47 11.05, 8.02 0.8, 27.83 0 M0 27.83 C0.86 11.57, 7.53 1.52, 27.83 0" stroke="#1e1e1e" stroke-width="2" fill="none"></path></g><g transform="translate(506.81898328993054 40.66667175292969) rotate(0 84.56993103027344 25)"><text x="84.56993103027344" y="17.52" font-family="Virgil, Segoe UI Emoji" font-size="20px" fill="#1e1e1e" text-anchor="middle" style="white-space: pre;" direction="ltr" dominant-baseline="alphabetic">create new csrf</text><text x="84.56993103027344" y="42.519999999999996" font-family="Virgil, Segoe UI Emoji" font-size="20px" fill="#1e1e1e" text-anchor="middle" style="white-space: pre;" direction="ltr" dominant-baseline="alphabetic">secret and token</text></g><g stroke-linecap="round"><g transform="translate(363.0555937025282 164.4166717529297) rotate(0 61.629170346106434 -49.742219310253866)"><path d="M0.87 -0.03 C21.41 -16.69, 102.83 -82.94, 123.4 -99.45 M-0.14 -1.1 C20.25 -17.7, 101.79 -82.32, 122.48 -98.5" stroke="#1e1e1e" stroke-width="2" fill="none"></path></g><g transform="translate(363.0555937025282 164.4166717529297) rotate(0 61.629170346106434 -49.742219310253866)"><path d="M109.33 -77.24 C113.25 -83.8, 115.51 -88.88, 122.48 -98.5 M109.33 -77.24 C111.9 -81.74, 115.59 -86.79, 122.48 -98.5" stroke="#1e1e1e" stroke-width="2" fill="none"></path></g><g transform="translate(363.0555937025282 164.4166717529297) rotate(0 61.629170346106434 -49.742219310253866)"><path d="M98.74 -90.67 C105.99 -93.15, 111.53 -94.08, 122.48 -98.5 M98.74 -90.67 C103.68 -91.98, 109.86 -93.86, 122.48 -98.5" stroke="#1e1e1e" stroke-width="2" fill="none"></path></g></g><mask></mask><g transform="translate(373.0555174085829 84.41667175292969) rotate(0 27.069969177246094 12.5)"><text x="0" y="17.52" font-family="Virgil, Segoe UI Emoji" font-size="20px" fill="#1e1e1e" text-anchor="start" style="white-space: pre;" direction="ltr" dominant-baseline="alphabetic">empty</text></g><g stroke-linecap="round"><g transform="translate(366.47688746166466 342.0424545858175) rotate(0 78.64269872098089 52.86356325405748)"><path d="M-0.11 0.91 C26.35 18.18, 132.46 87.09, 158.91 104.41 M-1.62 0.34 C24.73 17.65, 131.76 87.82, 158.37 105.39" stroke="#1e1e1e" stroke-width="2" fill="none"></path></g><g transform="translate(366.47688746166466 342.0424545858175) rotate(0 78.64269872098089 52.86356325405748)"><path d="M134.04 99.63 C143.22 102.76, 147.58 103.98, 158.37 105.39 M134.04 99.63 C139.36 100.45, 146.59 103.24, 158.37 105.39" stroke="#1e1e1e" stroke-width="2" fill="none"></path></g><g transform="translate(366.47688746166466 342.0424545858175) rotate(0 78.64269872098089 52.86356325405748)"><path d="M143.44 85.34 C149.76 92.95, 151.18 98.65, 158.37 105.39 M143.44 85.34 C146.56 89.72, 151.48 96.03, 158.37 105.39" stroke="#1e1e1e" stroke-width="2" fill="none"></path></g></g><mask></mask><g transform="translate(350.5555174085829 373.58331298828125) rotate(0 27.069969177246094 25)"><text x="0" y="17.52" font-family="Virgil, Segoe UI Emoji" font-size="20px" fill="#1e1e1e" text-anchor="start" style="white-space: pre;" direction="ltr" dominant-baseline="alphabetic">not</text><text x="0" y="42.519999999999996" font-family="Virgil, Segoe UI Emoji" font-size="20px" fill="#1e1e1e" text-anchor="start" style="white-space: pre;" direction="ltr" dominant-baseline="alphabetic">empty</text></g><g stroke-linecap="round"><g transform="translate(217.22223493787976 257.74999237060547) rotate(0 28.62320870682595 -0.9033203247957573)"><path d="M-0.91 -0.35 C8.77 -0.24, 48.36 0.09, 58.15 0.02 M0.82 -1.59 C10.31 -1.74, 47.78 -2.02, 57.11 -1.66" stroke="#1e1e1e" stroke-width="2" fill="none"></path></g><g transform="translate(217.22223493787976 257.74999237060547) rotate(0 28.62320870682595 -0.9033203247957573)"><path d="M33.52 6.61 C40.25 3.94, 49.53 0.85, 57.11 -1.66 M33.52 6.61 C41.27 5.15, 48.17 1.65, 57.11 -1.66" stroke="#1e1e1e" stroke-width="2" fill="none"></path></g><g transform="translate(217.22223493787976 257.74999237060547) rotate(0 28.62320870682595 -0.9033203247957573)"><path d="M33.72 -10.49 C40.29 -7.89, 49.51 -5.71, 57.11 -1.66 M33.72 -10.49 C41.5 -6.74, 48.34 -5.05, 57.11 -1.66" stroke="#1e1e1e" stroke-width="2" fill="none"></path></g></g><mask></mask><g stroke-linecap="round" transform="translate(534.0793668958877 367.5356939406622) rotate(0 86.66667393275668 87.14285714285711)"><path d="M108.75 22 C118.27 29.19, 127.14 39.16, 151.58 66 M108.75 22 C118.58 31.01, 126.36 39.62, 151.58 66 M151.58 66 C172.69 87.42, 174.28 87.32, 151.58 110 M151.58 66 C172.26 87.64, 171.79 88.42, 151.58 110 M151.58 110 C142.97 120.99, 131.69 129.48, 108.75 152.29 M151.58 110 C140.23 121.62, 127.97 133.57, 108.75 152.29 M108.75 152.29 C88.54 173.7, 86.88 174.19, 65.25 152.29 M108.75 152.29 C85.76 176.45, 86.67 173.83, 65.25 152.29 M65.25 152.29 C51.34 136.57, 33.59 121.63, 21.75 110 M65.25 152.29 C50.65 139.04, 36.38 125.51, 21.75 110 M21.75 110 C0.85 88.29, 0.17 88.96, 21.75 66 M21.75 110 C-1.27 87.73, 0.95 88.9, 21.75 66 M21.75 66 C32.32 52.12, 44.57 40.23, 65.25 22 M21.75 66 C39.01 47.4, 55.14 30.79, 65.25 22 M65.25 22 C87.75 -1.23, 88.63 0.91, 108.75 22 M65.25 22 C87.03 -1.6, 88.31 1.3, 108.75 22" stroke="#1e1e1e" stroke-width="2" fill="none"></path></g><g transform="translate(587.2927392626566 429.60712251209077) rotate(0 33.619964599609375 25)"><text x="33.619964599609375" y="17.52" font-family="Virgil, Segoe UI Emoji" font-size="20px" fill="#1e1e1e" text-anchor="middle" style="white-space: pre;" direction="ltr" dominant-baseline="alphabetic">check </text><text x="33.619964599609375" y="42.519999999999996" font-family="Virgil, Segoe UI Emoji" font-size="20px" fill="#1e1e1e" text-anchor="middle" style="white-space: pre;" direction="ltr" dominant-baseline="alphabetic">method</text></g><g stroke-linecap="round"><g transform="translate(623.6032054840573 136.10712251209074) rotate(0 -0.733815261220002 107.18993433946878)"><path d="M-0.71 1.19 C-0.81 36.53, -1.36 177.24, -1.4 212.51 M1.11 0.76 C0.89 36.19, -2.11 178.09, -2.58 213.62" stroke="#1e1e1e" stroke-width="2" fill="none"></path></g><g transform="translate(623.6032054840573 136.10712251209074) rotate(0 -0.733815261220002 107.18993433946878)"><path d="M-10.72 189.98 C-6.75 194.79, -8.2 201.07, -2.58 213.62 M-10.72 189.98 C-8.11 196.16, -7.22 201.41, -2.58 213.62" stroke="#1e1e1e" stroke-width="2" fill="none"></path></g><g transform="translate(623.6032054840573 136.10712251209074) rotate(0 -0.733815261220002 107.18993433946878)"><path d="M6.38 190.28 C6.36 194.92, 0.92 201.13, -2.58 213.62 M6.38 190.28 C4.56 196.22, 1.03 201.4, -2.58 213.62" stroke="#1e1e1e" stroke-width="2" fill="none"></path></g></g><mask></mask><g stroke-linecap="round" transform="translate(802.603234548417 410.96426536923343) rotate(0 114.76191929408492 46.19046892438615)"><path d="M23.1 0 C94.65 -1.52, 163.17 -2.48, 206.43 0 M23.1 0 C71.07 1.27, 120.1 1.39, 206.43 0 M206.43 0 C221.4 0.7, 230.96 7.76, 229.52 23.1 M206.43 0 C223.37 -0.37, 230.67 8.65, 229.52 23.1 M229.52 23.1 C229.58 35.76, 228.41 52.88, 229.52 69.29 M229.52 23.1 C230.26 36.27, 229.85 49.84, 229.52 69.29 M229.52 69.29 C228.52 83.79, 220.95 93.29, 206.43 92.38 M229.52 69.29 C228.87 84.2, 222.03 90.38, 206.43 92.38 M206.43 92.38 C132.86 90.49, 62.22 93.09, 23.1 92.38 M206.43 92.38 C137.38 91.75, 67.56 92.06, 23.1 92.38 M23.1 92.38 C7.71 90.84, 1.2 84.77, 0 69.29 M23.1 92.38 C9.68 93.49, -0.28 85.56, 0 69.29 M0 69.29 C2.22 55.04, -0.33 43.42, 0 23.1 M0 69.29 C-0.51 57.93, -0.13 44.56, 0 23.1 M0 23.1 C-1.75 9.32, 7.82 0.53, 23.1 0 M0 23.1 C-1.58 7.44, 9.14 -2.16, 23.1 0" stroke="#1e1e1e" stroke-width="2" fill="none"></path></g><g transform="translate(867.4351993136934 444.6547342936196) rotate(0 49.929954528808594 12.5)"><text x="49.929954528808594" y="17.52" font-family="Virgil, Segoe UI Emoji" font-size="20px" fill="#1e1e1e" text-anchor="middle" style="white-space: pre;" direction="ltr" dominant-baseline="alphabetic">check csrf</text></g><g stroke-linecap="round"><g transform="translate(705.4603774055604 447.1547560918897) rotate(0 45.240619826962075 -0.01838658526540371)"><path d="M0.57 1.07 C15.57 1.04, 74.05 -1.05, 88.76 -1.1 M-0.58 0.58 C14.9 0.74, 75.75 0.16, 91.07 -0.14" stroke="#1e1e1e" stroke-width="2" fill="none"></path></g><g transform="translate(705.4603774055604 447.1547560918897) rotate(0 45.240619826962075 -0.01838658526540371)"><path d="M67.69 8.72 C74.22 5.56, 75.28 3.88, 91.07 -0.14 M67.69 8.72 C75.84 4.88, 85.13 2.76, 91.07 -0.14" stroke="#1e1e1e" stroke-width="2" fill="none"></path></g><g transform="translate(705.4603774055604 447.1547560918897) rotate(0 45.240619826962075 -0.01838658526540371)"><path d="M67.46 -8.38 C73.9 -8.12, 75.01 -6.38, 91.07 -0.14 M67.46 -8.38 C75.68 -6.04, 85.06 -1.98, 91.07 -0.14" stroke="#1e1e1e" stroke-width="2" fill="none"></path></g></g><mask></mask><g stroke-linecap="round" transform="translate(519.7460916912748 617.63091750372) rotate(0 100.47620500837047 44.28571428571428)"><path d="M22.14 0 C70.93 -0.24, 119.49 -0.2, 178.81 0 M22.14 0 C77.5 -0.17, 133.71 -0.22, 178.81 0 M178.81 0 C194.87 -0.77, 199.7 7.54, 200.95 22.14 M178.81 0 C195.44 1.02, 199.26 6.08, 200.95 22.14 M200.95 22.14 C203.13 33.01, 199.79 41.39, 200.95 66.43 M200.95 22.14 C200.29 37.33, 201.76 50.9, 200.95 66.43 M200.95 66.43 C202.24 80.52, 192.93 90.04, 178.81 88.57 M200.95 66.43 C198.73 83.26, 193.91 88.67, 178.81 88.57 M178.81 88.57 C125.53 88.24, 68.69 86.23, 22.14 88.57 M178.81 88.57 C145.5 87.66, 110.98 87.21, 22.14 88.57 M22.14 88.57 C7.16 86.92, 1.21 82.77, 0 66.43 M22.14 88.57 C7.87 88.18, 1.34 78.93, 0 66.43 M0 66.43 C0.28 54.82, 0.91 42.21, 0 22.14 M0 66.43 C1.02 52.06, -0.03 39.09, 0 22.14 M0 22.14 C1.57 7.99, 5.97 -0.6, 22.14 0 M0 22.14 C1.51 8.63, 8.53 0.2, 22.14 0" stroke="#1e1e1e" stroke-width="2" fill="none"></path></g><g transform="translate(598.8123159257195 649.4166317894343) rotate(0 21.40998077392578 12.5)"><text x="21.40998077392578" y="17.52" font-family="Virgil, Segoe UI Emoji" font-size="20px" fill="#1e1e1e" text-anchor="middle" style="white-space: pre;" direction="ltr" dominant-baseline="alphabetic">next</text></g><g stroke-linecap="round"><g transform="translate(620.6984145149354 545.2499796549478) rotate(0 -2.0546196512924553 31.218403514687452)"><path d="M-1.13 -0.84 C-1.76 9.7, -4.19 52.53, -4.58 63.28 M0.47 1.33 C0.3 11.51, -1.52 51.3, -2.28 61.38" stroke="#1e1e1e" stroke-width="2" fill="none"></path></g><g transform="translate(620.6984145149354 545.2499796549478) rotate(0 -2.0546196512924553 31.218403514687452)"><path d="M-9.46 37.43 C-9.18 41.8, -5.4 49.26, -2.28 61.38 M-9.46 37.43 C-7.29 45.69, -3.55 55.42, -2.28 61.38" stroke="#1e1e1e" stroke-width="2" fill="none"></path></g><g transform="translate(620.6984145149354 545.2499796549478) rotate(0 -2.0546196512924553 31.218403514687452)"><path d="M7.61 38.42 C3.9 42.4, 3.7 49.62, -2.28 61.38 M7.61 38.42 C3.49 46.15, 0.93 55.53, -2.28 61.38" stroke="#1e1e1e" stroke-width="2" fill="none"></path></g></g><mask></mask><g transform="translate(522.6031909518772 563.3452032180057) rotate(0 32.869964599609375 12.5)"><text x="0" y="17.52" font-family="Virgil, Segoe UI Emoji" font-size="20px" fill="#1e1e1e" text-anchor="start" style="white-space: pre;" direction="ltr" dominant-baseline="alphabetic">ignored</text></g><g transform="translate(688.317520262703 384.2976132347468) rotate(0 53.729949951171875 12.5)"><text x="0" y="17.52" font-family="Virgil, Segoe UI Emoji" font-size="20px" fill="#1e1e1e" text-anchor="start" style="white-space: pre;" direction="ltr" dominant-baseline="alphabetic">not ignored</text></g><g transform="translate(64.78575001065747 64.69444347563251) rotate(0 109.85990142822266 37.5)"><text x="0" y="17.52" font-family="Virgil, Segoe UI Emoji" font-size="20px" fill="#1e1e1e" text-anchor="start" style="white-space: pre;" direction="ltr" dominant-baseline="alphabetic">You check source code</text><text x="0" y="42.519999999999996" font-family="Virgil, Segoe UI Emoji" font-size="20px" fill="#1e1e1e" text-anchor="start" style="white-space: pre;" direction="ltr" dominant-baseline="alphabetic">it has a detailed</text><text x="0" y="67.52" font-family="Virgil, Segoe UI Emoji" font-size="20px" fill="#1e1e1e" text-anchor="start" style="white-space: pre;" direction="ltr" dominant-baseline="alphabetic">comments</text></g><g transform="translate(854.7858008732871 34.69446890694769) rotate(0 161.81988525390625 62.5)"><text x="0" y="17.52" font-family="Virgil, Segoe UI Emoji" font-size="20px" fill="#1e1e1e" text-anchor="start" style="white-space: pre;" direction="ltr" dominant-baseline="alphabetic">note: What if the first request</text><text x="0" y="42.519999999999996" font-family="Virgil, Segoe UI Emoji" font-size="20px" fill="#1e1e1e" text-anchor="start" style="white-space: pre;" direction="ltr" dominant-baseline="alphabetic">is not ignored eg: POST. What</text><text x="0" y="67.52" font-family="Virgil, Segoe UI Emoji" font-size="20px" fill="#1e1e1e" text-anchor="start" style="white-space: pre;" direction="ltr" dominant-baseline="alphabetic">should I do ?</text><text x="0" y="92.52" font-family="Virgil, Segoe UI Emoji" font-size="20px" fill="#1e1e1e" text-anchor="start" style="white-space: pre;" direction="ltr" dominant-baseline="alphabetic">we check the csrf as normal and</text><text x="0" y="117.52" font-family="Virgil, Segoe UI Emoji" font-size="20px" fill="#1e1e1e" text-anchor="start" style="white-space: pre;" direction="ltr" dominant-baseline="alphabetic">at the end we create new one.</text></g><g stroke-linecap="round" transform="translate(1155.8968441675586 413.5834001813615) rotate(0 127.77781168619788 45)"><path d="M22.5 0 C84.04 -1.48, 141.95 -1.81, 233.06 0 M22.5 0 C78.3 2.12, 135.14 0.98, 233.06 0 M233.06 0 C248.38 0.85, 254.61 9.37, 255.56 22.5 M233.06 0 C249.6 -1.53, 256.7 6.41, 255.56 22.5 M255.56 22.5 C257.12 33.23, 257 44.96, 255.56 67.5 M255.56 22.5 C255.36 35.01, 255.52 48.75, 255.56 67.5 M255.56 67.5 C256.27 83.01, 247.74 91.85, 233.06 90 M255.56 67.5 C254.09 80.3, 246.24 88.44, 233.06 90 M233.06 90 C166.59 93.01, 97.87 90.36, 22.5 90 M233.06 90 C171.66 90.42, 110.67 91.02, 22.5 90 M22.5 90 C7.36 88.43, 1.65 81.79, 0 67.5 M22.5 90 C7.23 91.4, 1.15 84.65, 0 67.5 M0 67.5 C0.15 56.67, -1.46 45.38, 0 22.5 M0 67.5 C0.86 52.97, 0.35 40.41, 0 22.5 M0 22.5 C-1.71 5.9, 8.07 -0.15, 22.5 0 M0 22.5 C0.39 8, 9.74 0.8, 22.5 0" stroke="#1e1e1e" stroke-width="2" fill="none"></path></g><g transform="translate(1205.2547187199675 446.0834001813615) rotate(0 78.41993713378906 12.5)"><text x="78.41993713378906" y="17.52" font-family="Virgil, Segoe UI Emoji" font-size="20px" fill="#1e1e1e" text-anchor="middle" style="white-space: pre;" direction="ltr" dominant-baseline="alphabetic">create new csrf</text></g><g stroke-linecap="round"><g transform="translate(1040.3413225204229 455.66185831386144) rotate(0 52.63088810378838 -1.3184483219730225)"><path d="M-0.02 0.04 C17.96 -0.25, 89.27 -2.31, 106.75 -2.68 M-1.49 -0.98 C16.53 -0.97, 88.89 -0.53, 106.43 -1.06" stroke="#1e1e1e" stroke-width="2" fill="none"></path></g><g transform="translate(1040.3413225204229 455.66185831386144) rotate(0 52.63088810378838 -1.3184483219730225)"><path d="M83.02 7.7 C88.02 7.88, 93.07 2.95, 106.43 -1.06 M83.02 7.7 C91.26 4.38, 99.93 0.93, 106.43 -1.06" stroke="#1e1e1e" stroke-width="2" fill="none"></path></g><g transform="translate(1040.3413225204229 455.66185831386144) rotate(0 52.63088810378838 -1.3184483219730225)"><path d="M82.86 -9.4 C87.76 -5.67, 92.84 -7.04, 106.43 -1.06 M82.86 -9.4 C91.23 -6.66, 99.96 -4.06, 106.43 -1.06" stroke="#1e1e1e" stroke-width="2" fill="none"></path></g></g><mask></mask><g transform="translate(165.897047618079 564.6945960635231) rotate(0 162.7798614501953 25)"><text x="0" y="17.52" font-family="Virgil, Segoe UI Emoji" font-size="20px" fill="#1e1e1e" text-anchor="start" style="white-space: pre;" direction="ltr" dominant-baseline="alphabetic">If the method is ignored we keep</text><text x="0" y="42.519999999999996" font-family="Virgil, Segoe UI Emoji" font-size="20px" fill="#1e1e1e" text-anchor="start" style="white-space: pre;" direction="ltr" dominant-baseline="alphabetic">csrf secret and token as it is.</text></g><g transform="translate(971.4525692652144 318.0278785342261) rotate(0 142.98989868164062 37.5)"><text x="0" y="17.52" font-family="Virgil, Segoe UI Emoji" font-size="20px" fill="#1e1e1e" text-anchor="start" style="white-space: pre;" direction="ltr" dominant-baseline="alphabetic">If the method is not ignored</text><text x="0" y="42.519999999999996" font-family="Virgil, Segoe UI Emoji" font-size="20px" fill="#1e1e1e" text-anchor="start" style="white-space: pre;" direction="ltr" dominant-baseline="alphabetic">we create a new csrf secret</text><text x="0" y="67.52" font-family="Virgil, Segoe UI Emoji" font-size="20px" fill="#1e1e1e" text-anchor="start" style="white-space: pre;" direction="ltr" dominant-baseline="alphabetic">and token.</text></g></svg>